<svg width="18" height="18" viewBox="0 0 18 18" fill="none" xmlns="http://www.w3.org/2000/svg">
<path d="M9 0C13.9704 0.000212742 18 4.02957 18 9C18 13.9704 13.9704 17.9998 9 18C7.56142 18 6.20214 17.6607 4.99609 17.0605C4.9462 17.0887 4.89081 17.1108 4.8291 17.1221L0.751953 17.8633C0.3882 17.9294 0.0708361 17.6118 0.136719 17.248L0.87793 13.1709C0.889168 13.1091 0.910262 13.0529 0.938477 13.0029C0.338518 11.7971 0 10.4383 0 9C0 4.02944 4.02944 0 9 0Z" fill="#DFDFDB"/>
<circle cx="5.625" cy="9" r="1.125" fill="#363636"/>
<circle cx="9" cy="9" r="1.125" fill="#363636"/>
<circle cx="12.375" cy="9" r="1.125" fill="#363636"/>
</svg>
