<svg width="19" height="19" viewBox="0 0 19 19" fill="none" xmlns="http://www.w3.org/2000/svg">
<path d="M0.501293 9.31036H1.24902C1.52517 9.31036 1.74902 9.53323 1.74902 9.80937V15.8104C1.74902 18.3943 4.87159 18.9059 6.79435 18.8385C7.05279 18.8295 7.24902 18.6124 7.24902 18.3538V13.3104C7.24902 13.0342 7.47288 12.8104 7.74902 12.8104H11.249C11.5252 12.8104 11.749 13.0332 11.749 13.3094V18.3106C11.749 18.5867 11.9747 18.812 12.2504 18.7969C15.4204 18.6234 16.5589 16.8134 16.7419 15.8503C16.747 15.8232 16.749 15.7965 16.749 15.769V9.81036C16.749 9.53422 16.9729 9.31036 17.249 9.31036H17.9968C18.4484 9.31036 18.6686 8.75894 18.3411 8.44786L9.5934 0.13752C9.40042 -0.045814 9.09763 -0.0458139 8.90465 0.13752L0.156918 8.44786C-0.170535 8.75894 0.0496334 9.31036 0.501293 9.31036Z" fill="#D97A3F"/>
</svg>
